# xmcd
#
# Track frame offsets: 
#        150
#        17378
#        40688
#        60593
#        85658
#        106411
#        127486
#        150519
#        172539
#        185559
#        210549
#        240084
#        255474
#
# Disc length: 3508 seconds
#
# Revision: 0
# Processed by: cddbd v1.5.2PL0 Copyright (c) Steve Scherf et al.
# Submitted via: ExactAudioCopyFreeDBPlugin 1.0
#
DISCID=930db20d
DTITLE=The Marcus King Band - The Marcus King Band
DYEAR=2016
DGENRE=Blues
TTITLE0=Ain't Nothin' Wrong With That
TTITLE1=Devil's Land
TTITLE2=Rita Is Gone
TTITLE3=Self-Hatred
TTITLE4=Jealous Man
TTITLE5=The Man You Didn't Know
TTITLE6=Plant Your Corn Early
TTITLE7=Radio Soldier
TTITLE8=Guitars In My Hands
TTITLE9=Thespian Espionage
TTITLE10=Virgnia
TTITLE11=Sorry 'Bout Your Lover
TTITLE12=The Mystery Of Mr. Eads
EXTD=
EXTT0=
EXTT1=
EXTT2=
EXTT3=
EXTT4=
EXTT5=
EXTT6=
EXTT7=
EXTT8=
EXTT9=
EXTT10=
EXTT11=
EXTT12=
PLAYORDER=
